<svg width="700" height="517" viewBox="0 0 700 517" fill="none" xmlns="http://www.w3.org/2000/svg">
<rect width="700" height="517" fill="white"/>
<path d="M274.5 258C274.5 253.732 273.659 249.506 272.026 245.563C270.393 241.62 267.999 238.037 264.981 235.019C261.963 232.001 258.38 229.607 254.437 227.974C250.494 226.341 246.268 225.5 242 225.5C237.732 225.5 233.506 226.341 229.563 227.974C225.62 229.607 222.037 232.001 219.019 235.019C216.001 238.037 213.607 241.62 211.974 245.563C210.341 249.506 209.5 253.732 209.5 258" stroke="#F54748" stroke-width="15"/>
<path d="M242.976 283.714L271.702 238H214.249L242.976 283.714Z" fill="#F54748"/>
<ellipse cx="242.244" cy="234.19" rx="27.561" ry="11.4286" fill="#F54748"/>
<rect width="2.69785" height="39.5758" transform="matrix(0.852234 -0.523161 0.541544 0.840672 220.537 235.602)" fill="white"/>
<ellipse cx="253.219" cy="235.143" rx="5.36585" ry="5.2381" fill="white"/>
<ellipse cx="242.244" cy="234.429" rx="2.68293" ry="2.61905" fill="white"/>
<path d="M300.988 262V236.8H311.896C314.152 236.8 316.096 237.172 317.728 237.916C319.36 238.636 320.62 239.68 321.508 241.048C322.396 242.416 322.84 244.048 322.84 245.944C322.84 247.816 322.396 249.436 321.508 250.804C320.62 252.172 319.36 253.228 317.728 253.972C316.096 254.692 314.152 255.052 311.896 255.052H304.228L306.82 252.424V262H300.988ZM306.82 253.072L304.228 250.3H311.572C313.372 250.3 314.716 249.916 315.604 249.148C316.492 248.38 316.936 247.312 316.936 245.944C316.936 244.552 316.492 243.472 315.604 242.704C314.716 241.936 313.372 241.552 311.572 241.552H304.228L306.82 238.78V253.072ZM326.959 262V242.632H332.575V262H326.959ZM329.767 239.932C328.735 239.932 327.895 239.632 327.247 239.032C326.599 238.432 326.275 237.688 326.275 236.8C326.275 235.912 326.599 235.168 327.247 234.568C327.895 233.968 328.735 233.668 329.767 233.668C330.799 233.668 331.639 233.956 332.287 234.532C332.935 235.084 333.259 235.804 333.259 236.692C333.259 237.628 332.935 238.408 332.287 239.032C331.663 239.632 330.823 239.932 329.767 239.932ZM336.455 262V258.616L347.903 245.08L348.875 246.952H336.707V242.632H353.411V246.016L341.963 259.552L340.955 257.68H353.735V262H336.455ZM356.002 262V258.616L367.45 245.08L368.422 246.952H356.254V242.632H372.958V246.016L361.51 259.552L360.502 257.68H373.282V262H356.002ZM388.761 262V258.22L388.401 257.392V250.624C388.401 249.424 388.029 248.488 387.285 247.816C386.565 247.144 385.449 246.808 383.937 246.808C382.905 246.808 381.885 246.976 380.877 247.312C379.893 247.624 379.053 248.056 378.357 248.608L376.341 244.684C377.397 243.94 378.669 243.364 380.157 242.956C381.645 242.548 383.157 242.344 384.693 242.344C387.645 242.344 389.937 243.04 391.569 244.432C393.201 245.824 394.017 247.996 394.017 250.948V262H388.761ZM382.857 262.288C381.345 262.288 380.049 262.036 378.969 261.532C377.889 261.004 377.061 260.296 376.485 259.408C375.909 258.52 375.621 257.524 375.621 256.42C375.621 255.268 375.897 254.26 376.449 253.396C377.025 252.532 377.925 251.86 379.149 251.38C380.373 250.876 381.969 250.624 383.937 250.624H389.085V253.9H384.549C383.229 253.9 382.317 254.116 381.813 254.548C381.333 254.98 381.093 255.52 381.093 256.168C381.093 256.888 381.369 257.464 381.921 257.896C382.497 258.304 383.277 258.508 384.261 258.508C385.197 258.508 386.037 258.292 386.781 257.86C387.525 257.404 388.065 256.744 388.401 255.88L389.265 258.472C388.857 259.72 388.113 260.668 387.033 261.316C385.953 261.964 384.561 262.288 382.857 262.288ZM405.292 262V239.932H396.652V236.8H417.496V239.932H408.856V262H405.292ZM427.116 262.216C425.196 262.216 423.492 261.796 422.004 260.956C420.516 260.116 419.34 258.964 418.476 257.5C417.612 256.012 417.18 254.332 417.18 252.46C417.18 250.564 417.612 248.884 418.476 247.42C419.34 245.956 420.516 244.816 422.004 244C423.492 243.16 425.196 242.74 427.116 242.74C429.012 242.74 430.704 243.16 432.192 244C433.704 244.816 434.88 245.956 435.72 247.42C436.584 248.86 437.016 250.54 437.016 252.46C437.016 254.356 436.584 256.036 435.72 257.5C434.88 258.964 433.704 260.116 432.192 260.956C430.704 261.796 429.012 262.216 427.116 262.216ZM427.116 259.192C428.34 259.192 429.432 258.916 430.392 258.364C431.376 257.812 432.144 257.032 432.696 256.024C433.248 254.992 433.524 253.804 433.524 252.46C433.524 251.092 433.248 249.916 432.696 248.932C432.144 247.924 431.376 247.144 430.392 246.592C429.432 246.04 428.34 245.764 427.116 245.764C425.892 245.764 424.8 246.04 423.84 246.592C422.88 247.144 422.112 247.924 421.536 248.932C420.96 249.916 420.672 251.092 420.672 252.46C420.672 253.804 420.96 254.992 421.536 256.024C422.112 257.032 422.88 257.812 423.84 258.364C424.8 258.916 425.892 259.192 427.116 259.192ZM445.3 262L438.208 242.92H441.484L447.784 260.2H446.236L452.788 242.92H455.704L462.112 260.2H460.6L467.044 242.92H470.14L463.012 262H459.7L453.688 246.232H454.696L448.612 262H445.3ZM483.835 242.74C485.395 242.74 486.763 243.04 487.939 243.64C489.139 244.24 490.075 245.152 490.747 246.376C491.419 247.6 491.755 249.148 491.755 251.02V262H488.299V251.416C488.299 249.568 487.843 248.176 486.931 247.24C486.043 246.304 484.783 245.836 483.151 245.836C481.927 245.836 480.859 246.076 479.947 246.556C479.035 247.036 478.327 247.744 477.823 248.68C477.343 249.616 477.103 250.78 477.103 252.172V262H473.647V242.92H476.959V248.068L476.419 246.7C477.043 245.452 478.003 244.48 479.299 243.784C480.595 243.088 482.107 242.74 483.835 242.74Z" fill="#2D2D2D"/>
<g filter="url(#filter0_d_1_2)">
<rect x="253" y="298" width="194" height="27" rx="13.5" fill="#FF7070"/>
</g>
<path d="M282.097 311.535H285.121V312.705H282.097V311.535ZM282.205 315H280.747V308.7H285.508V309.87H282.205V315ZM286.495 315V308.7H289.222C289.786 308.7 290.272 308.793 290.68 308.979C291.088 309.159 291.403 309.42 291.625 309.762C291.847 310.104 291.958 310.512 291.958 310.986C291.958 311.454 291.847 311.859 291.625 312.201C291.403 312.537 291.088 312.795 290.68 312.975C290.272 313.155 289.786 313.245 289.222 313.245H287.305L287.953 312.606V315H286.495ZM290.5 315L288.925 312.714H290.482L292.075 315H290.5ZM287.953 312.768L287.305 312.084H289.141C289.591 312.084 289.927 311.988 290.149 311.796C290.371 311.598 290.482 311.328 290.482 310.986C290.482 310.638 290.371 310.368 290.149 310.176C289.927 309.984 289.591 309.888 289.141 309.888H287.305L287.953 309.195V312.768ZM292.285 315L295.093 308.7H296.533L299.35 315H297.82L295.516 309.438H296.092L293.779 315H292.285ZM293.689 313.65L294.076 312.543H297.316L297.712 313.65H293.689ZM300.004 315V308.7H301.21L303.892 313.146H303.253L305.89 308.7H307.087L307.105 315H305.737L305.728 310.797H305.98L303.874 314.334H303.217L301.066 310.797H301.372V315H300.004ZM309.941 311.238H312.974V312.372H309.941V311.238ZM310.049 313.83H313.478V315H308.6V308.7H313.361V309.87H310.049V313.83ZM316.062 315L314.001 308.7H315.513L317.304 314.28H316.548L318.42 308.7H319.77L321.57 314.28H320.841L322.677 308.7H324.072L322.011 315H320.445L318.852 310.104H319.266L317.628 315H316.062ZM327.875 315.108C327.377 315.108 326.915 315.027 326.489 314.865C326.069 314.703 325.703 314.475 325.391 314.181C325.085 313.887 324.845 313.542 324.671 313.146C324.503 312.75 324.419 312.318 324.419 311.85C324.419 311.382 324.503 310.95 324.671 310.554C324.845 310.158 325.088 309.813 325.4 309.519C325.712 309.225 326.078 308.997 326.498 308.835C326.918 308.673 327.374 308.592 327.866 308.592C328.364 308.592 328.82 308.673 329.234 308.835C329.654 308.997 330.017 309.225 330.323 309.519C330.635 309.813 330.878 310.158 331.052 310.554C331.226 310.944 331.313 311.376 331.313 311.85C331.313 312.318 331.226 312.753 331.052 313.155C330.878 313.551 330.635 313.896 330.323 314.19C330.017 314.478 329.654 314.703 329.234 314.865C328.82 315.027 328.367 315.108 327.875 315.108ZM327.866 313.866C328.148 313.866 328.406 313.818 328.64 313.722C328.88 313.626 329.09 313.488 329.27 313.308C329.45 313.128 329.588 312.915 329.684 312.669C329.786 312.423 329.837 312.15 329.837 311.85C329.837 311.55 329.786 311.277 329.684 311.031C329.588 310.785 329.45 310.572 329.27 310.392C329.096 310.212 328.889 310.074 328.649 309.978C328.409 309.882 328.148 309.834 327.866 309.834C327.584 309.834 327.323 309.882 327.083 309.978C326.849 310.074 326.642 310.212 326.462 310.392C326.282 310.572 326.141 310.785 326.039 311.031C325.943 311.277 325.895 311.55 325.895 311.85C325.895 312.144 325.943 312.417 326.039 312.669C326.141 312.915 326.279 313.128 326.453 313.308C326.633 313.488 326.843 313.626 327.083 313.722C327.323 313.818 327.584 313.866 327.866 313.866ZM332.409 315V308.7H335.136C335.7 308.7 336.186 308.793 336.594 308.979C337.002 309.159 337.317 309.42 337.539 309.762C337.761 310.104 337.872 310.512 337.872 310.986C337.872 311.454 337.761 311.859 337.539 312.201C337.317 312.537 337.002 312.795 336.594 312.975C336.186 313.155 335.7 313.245 335.136 313.245H333.219L333.867 312.606V315H332.409ZM336.414 315L334.839 312.714H336.396L337.989 315H336.414ZM333.867 312.768L333.219 312.084H335.055C335.505 312.084 335.841 311.988 336.063 311.796C336.285 311.598 336.396 311.328 336.396 310.986C336.396 310.638 336.285 310.368 336.063 310.176C335.841 309.984 335.505 309.888 335.055 309.888H333.219L333.867 309.195V312.768ZM340.332 313.56L340.251 311.877L343.266 308.7H344.886L342.168 311.625L341.358 312.489L340.332 313.56ZM339.027 315V308.7H340.476V315H339.027ZM343.338 315L341.097 312.255L342.051 311.22L345.039 315H343.338ZM351.037 315.108C350.143 315.108 349.444 314.859 348.94 314.361C348.436 313.863 348.184 313.152 348.184 312.228V308.7H349.642V312.174C349.642 312.774 349.765 313.206 350.011 313.47C350.257 313.734 350.602 313.866 351.046 313.866C351.49 313.866 351.835 313.734 352.081 313.47C352.327 313.206 352.45 312.774 352.45 312.174V308.7H353.89V312.228C353.89 313.152 353.638 313.863 353.134 314.361C352.63 314.859 351.931 315.108 351.037 315.108ZM357.401 315.108C356.897 315.108 356.414 315.042 355.952 314.91C355.49 314.772 355.118 314.595 354.836 314.379L355.331 313.281C355.601 313.473 355.919 313.632 356.285 313.758C356.657 313.878 357.032 313.938 357.41 313.938C357.698 313.938 357.929 313.911 358.103 313.857C358.283 313.797 358.415 313.716 358.499 313.614C358.583 313.512 358.625 313.395 358.625 313.263C358.625 313.095 358.559 312.963 358.427 312.867C358.295 312.765 358.121 312.684 357.905 312.624C357.689 312.558 357.449 312.498 357.185 312.444C356.927 312.384 356.666 312.312 356.402 312.228C356.144 312.144 355.907 312.036 355.691 311.904C355.475 311.772 355.298 311.598 355.16 311.382C355.028 311.166 354.962 310.89 354.962 310.554C354.962 310.194 355.058 309.867 355.25 309.573C355.448 309.273 355.742 309.036 356.132 308.862C356.528 308.682 357.023 308.592 357.617 308.592C358.013 308.592 358.403 308.64 358.787 308.736C359.171 308.826 359.51 308.964 359.804 309.15L359.354 310.257C359.06 310.089 358.766 309.966 358.472 309.888C358.178 309.804 357.89 309.762 357.608 309.762C357.326 309.762 357.095 309.795 356.915 309.861C356.735 309.927 356.606 310.014 356.528 310.122C356.45 310.224 356.411 310.344 356.411 310.482C356.411 310.644 356.477 310.776 356.609 310.878C356.741 310.974 356.915 311.052 357.131 311.112C357.347 311.172 357.584 311.232 357.842 311.292C358.106 311.352 358.367 311.421 358.625 311.499C358.889 311.577 359.129 311.682 359.345 311.814C359.561 311.946 359.735 312.12 359.867 312.336C360.005 312.552 360.074 312.825 360.074 313.155C360.074 313.509 359.975 313.833 359.777 314.127C359.579 314.421 359.282 314.658 358.886 314.838C358.496 315.018 358.001 315.108 357.401 315.108ZM362.411 311.238H365.444V312.372H362.411V311.238ZM362.519 313.83H365.948V315H361.07V308.7H365.831V309.87H362.519V313.83ZM367.108 315V308.7H369.97C370.654 308.7 371.257 308.832 371.779 309.096C372.301 309.354 372.709 309.717 373.003 310.185C373.297 310.653 373.444 311.208 373.444 311.85C373.444 312.486 373.297 313.041 373.003 313.515C372.709 313.983 372.301 314.349 371.779 314.613C371.257 314.871 370.654 315 369.97 315H367.108ZM368.566 313.803H369.898C370.318 313.803 370.681 313.725 370.987 313.569C371.299 313.407 371.539 313.179 371.707 312.885C371.881 312.591 371.968 312.246 371.968 311.85C371.968 311.448 371.881 311.103 371.707 310.815C371.539 310.521 371.299 310.296 370.987 310.14C370.681 309.978 370.318 309.897 369.898 309.897H368.566V313.803ZM374.976 311.841C374.736 311.841 374.529 311.76 374.355 311.598C374.187 311.43 374.103 311.217 374.103 310.959C374.103 310.701 374.187 310.494 374.355 310.338C374.529 310.176 374.736 310.095 374.976 310.095C375.222 310.095 375.429 310.176 375.597 310.338C375.765 310.494 375.849 310.701 375.849 310.959C375.849 311.217 375.765 311.43 375.597 311.598C375.429 311.76 375.222 311.841 374.976 311.841ZM374.976 315.072C374.736 315.072 374.529 314.991 374.355 314.829C374.187 314.661 374.103 314.448 374.103 314.19C374.103 313.932 374.187 313.725 374.355 313.569C374.529 313.407 374.736 313.326 374.976 313.326C375.222 313.326 375.429 313.407 375.597 313.569C375.765 313.725 375.849 313.932 375.849 314.19C375.849 314.448 375.765 314.661 375.597 314.829C375.429 314.991 375.222 315.072 374.976 315.072ZM379.448 315V308.7H382.175C382.739 308.7 383.225 308.793 383.633 308.979C384.041 309.159 384.356 309.42 384.578 309.762C384.8 310.104 384.911 310.512 384.911 310.986C384.911 311.454 384.8 311.859 384.578 312.201C384.356 312.537 384.041 312.795 383.633 312.975C383.225 313.155 382.739 313.245 382.175 313.245H380.258L380.906 312.606V315H379.448ZM383.453 315L381.878 312.714H383.435L385.028 315H383.453ZM380.906 312.768L380.258 312.084H382.094C382.544 312.084 382.88 311.988 383.102 311.796C383.324 311.598 383.435 311.328 383.435 310.986C383.435 310.638 383.324 310.368 383.102 310.176C382.88 309.984 382.544 309.888 382.094 309.888H380.258L380.906 309.195V312.768ZM387.407 311.238H390.44V312.372H387.407V311.238ZM387.515 313.83H390.944V315H386.066V308.7H390.827V309.87H387.515V313.83ZM391.276 315L394.084 308.7H395.524L398.341 315H396.811L394.507 309.438H395.083L392.77 315H391.276ZM392.68 313.65L393.067 312.543H396.307L396.703 313.65H392.68ZM401.922 315.108C401.436 315.108 400.983 315.03 400.563 314.874C400.149 314.712 399.789 314.484 399.483 314.19C399.177 313.896 398.937 313.551 398.763 313.155C398.595 312.759 398.511 312.324 398.511 311.85C398.511 311.376 398.595 310.941 398.763 310.545C398.937 310.149 399.177 309.804 399.483 309.51C399.795 309.216 400.158 308.991 400.572 308.835C400.986 308.673 401.439 308.592 401.931 308.592C402.477 308.592 402.969 308.688 403.407 308.88C403.851 309.066 404.223 309.342 404.523 309.708L403.587 310.572C403.371 310.326 403.131 310.143 402.867 310.023C402.603 309.897 402.315 309.834 402.003 309.834C401.709 309.834 401.439 309.882 401.193 309.978C400.947 310.074 400.734 310.212 400.554 310.392C400.374 310.572 400.233 310.785 400.131 311.031C400.035 311.277 399.987 311.55 399.987 311.85C399.987 312.15 400.035 312.423 400.131 312.669C400.233 312.915 400.374 313.128 400.554 313.308C400.734 313.488 400.947 313.626 401.193 313.722C401.439 313.818 401.709 313.866 402.003 313.866C402.315 313.866 402.603 313.806 402.867 313.686C403.131 313.56 403.371 313.371 403.587 313.119L404.523 313.983C404.223 314.349 403.851 314.628 403.407 314.82C402.969 315.012 402.474 315.108 401.922 315.108ZM406.751 315V309.888H404.735V308.7H410.225V309.888H408.209V315H406.751ZM414.72 315.108C414.294 315.108 413.901 315.03 413.541 314.874C413.187 314.712 412.896 314.484 412.668 314.19L413.478 313.218C413.652 313.446 413.835 313.62 414.027 313.74C414.219 313.854 414.426 313.911 414.648 313.911C415.242 313.911 415.539 313.563 415.539 312.867V309.87H413.325V308.7H416.988V312.786C416.988 313.566 416.796 314.148 416.412 314.532C416.028 314.916 415.464 315.108 414.72 315.108ZM420.498 315.108C419.994 315.108 419.511 315.042 419.049 314.91C418.587 314.772 418.215 314.595 417.933 314.379L418.428 313.281C418.698 313.473 419.016 313.632 419.382 313.758C419.754 313.878 420.129 313.938 420.507 313.938C420.795 313.938 421.026 313.911 421.2 313.857C421.38 313.797 421.512 313.716 421.596 313.614C421.68 313.512 421.722 313.395 421.722 313.263C421.722 313.095 421.656 312.963 421.524 312.867C421.392 312.765 421.218 312.684 421.002 312.624C420.786 312.558 420.546 312.498 420.282 312.444C420.024 312.384 419.763 312.312 419.499 312.228C419.241 312.144 419.004 312.036 418.788 311.904C418.572 311.772 418.395 311.598 418.257 311.382C418.125 311.166 418.059 310.89 418.059 310.554C418.059 310.194 418.155 309.867 418.347 309.573C418.545 309.273 418.839 309.036 419.229 308.862C419.625 308.682 420.12 308.592 420.714 308.592C421.11 308.592 421.5 308.64 421.884 308.736C422.268 308.826 422.607 308.964 422.901 309.15L422.451 310.257C422.157 310.089 421.863 309.966 421.569 309.888C421.275 309.804 420.987 309.762 420.705 309.762C420.423 309.762 420.192 309.795 420.012 309.861C419.832 309.927 419.703 310.014 419.625 310.122C419.547 310.224 419.508 310.344 419.508 310.482C419.508 310.644 419.574 310.776 419.706 310.878C419.838 310.974 420.012 311.052 420.228 311.112C420.444 311.172 420.681 311.232 420.939 311.292C421.203 311.352 421.464 311.421 421.722 311.499C421.986 311.577 422.226 311.682 422.442 311.814C422.658 311.946 422.832 312.12 422.964 312.336C423.102 312.552 423.171 312.825 423.171 313.155C423.171 313.509 423.072 313.833 422.874 314.127C422.676 314.421 422.379 314.658 421.983 314.838C421.593 315.018 421.098 315.108 420.498 315.108Z" fill="white"/>
<defs>
<filter id="filter0_d_1_2" x="249" y="298" width="202" height="35" filterUnits="userSpaceOnUse" color-interpolation-filters="sRGB">
<feFlood flood-opacity="0" result="BackgroundImageFix"/>
<feColorMatrix in="SourceAlpha" type="matrix" values="0 0 0 0 0 0 0 0 0 0 0 0 0 0 0 0 0 0 127 0" result="hardAlpha"/>
<feOffset dy="4"/>
<feGaussianBlur stdDeviation="2"/>
<feComposite in2="hardAlpha" operator="out"/>
<feColorMatrix type="matrix" values="0 0 0 0 0.972549 0 0 0 0 0.407843 0 0 0 0 0.454902 0 0 0 0.35 0"/>
<feBlend mode="normal" in2="BackgroundImageFix" result="effect1_dropShadow_1_2"/>
<feBlend mode="normal" in="SourceGraphic" in2="effect1_dropShadow_1_2" result="shape"/>
</filter>
</defs>
</svg>
