<svg width="700" height="517" viewBox="0 0 700 517" fill="none" xmlns="http://www.w3.org/2000/svg">
<rect width="700" height="517" fill="white"/>
<g filter="url(#filter0_d_5_93)">
<rect x="266" y="279" width="194" height="27" rx="13.5" fill="#5DD155"/>
</g>
<path d="M295.097 292.535H298.121V293.705H295.097V292.535ZM295.205 296H293.747V289.7H298.508V290.87H295.205V296ZM299.495 296V289.7H302.222C302.786 289.7 303.272 289.793 303.68 289.979C304.088 290.159 304.403 290.42 304.625 290.762C304.847 291.104 304.958 291.512 304.958 291.986C304.958 292.454 304.847 292.859 304.625 293.201C304.403 293.537 304.088 293.795 303.68 293.975C303.272 294.155 302.786 294.245 302.222 294.245H300.305L300.953 293.606V296H299.495ZM303.5 296L301.925 293.714H303.482L305.075 296H303.5ZM300.953 293.768L300.305 293.084H302.141C302.591 293.084 302.927 292.988 303.149 292.796C303.371 292.598 303.482 292.328 303.482 291.986C303.482 291.638 303.371 291.368 303.149 291.176C302.927 290.984 302.591 290.888 302.141 290.888H300.305L300.953 290.195V293.768ZM305.285 296L308.093 289.7H309.533L312.35 296H310.82L308.516 290.438H309.092L306.779 296H305.285ZM306.689 294.65L307.076 293.543H310.316L310.712 294.65H306.689ZM313.004 296V289.7H314.21L316.892 294.146H316.253L318.89 289.7H320.087L320.105 296H318.737L318.728 291.797H318.98L316.874 295.334H316.217L314.066 291.797H314.372V296H313.004ZM322.941 292.238H325.974V293.372H322.941V292.238ZM323.049 294.83H326.478V296H321.6V289.7H326.361V290.87H323.049V294.83ZM329.062 296L327.001 289.7H328.513L330.304 295.28H329.548L331.42 289.7H332.77L334.57 295.28H333.841L335.677 289.7H337.072L335.011 296H333.445L331.852 291.104H332.266L330.628 296H329.062ZM340.875 296.108C340.377 296.108 339.915 296.027 339.489 295.865C339.069 295.703 338.703 295.475 338.391 295.181C338.085 294.887 337.845 294.542 337.671 294.146C337.503 293.75 337.419 293.318 337.419 292.85C337.419 292.382 337.503 291.95 337.671 291.554C337.845 291.158 338.088 290.813 338.4 290.519C338.712 290.225 339.078 289.997 339.498 289.835C339.918 289.673 340.374 289.592 340.866 289.592C341.364 289.592 341.82 289.673 342.234 289.835C342.654 289.997 343.017 290.225 343.323 290.519C343.635 290.813 343.878 291.158 344.052 291.554C344.226 291.944 344.313 292.376 344.313 292.85C344.313 293.318 344.226 293.753 344.052 294.155C343.878 294.551 343.635 294.896 343.323 295.19C343.017 295.478 342.654 295.703 342.234 295.865C341.82 296.027 341.367 296.108 340.875 296.108ZM340.866 294.866C341.148 294.866 341.406 294.818 341.64 294.722C341.88 294.626 342.09 294.488 342.27 294.308C342.45 294.128 342.588 293.915 342.684 293.669C342.786 293.423 342.837 293.15 342.837 292.85C342.837 292.55 342.786 292.277 342.684 292.031C342.588 291.785 342.45 291.572 342.27 291.392C342.096 291.212 341.889 291.074 341.649 290.978C341.409 290.882 341.148 290.834 340.866 290.834C340.584 290.834 340.323 290.882 340.083 290.978C339.849 291.074 339.642 291.212 339.462 291.392C339.282 291.572 339.141 291.785 339.039 292.031C338.943 292.277 338.895 292.55 338.895 292.85C338.895 293.144 338.943 293.417 339.039 293.669C339.141 293.915 339.279 294.128 339.453 294.308C339.633 294.488 339.843 294.626 340.083 294.722C340.323 294.818 340.584 294.866 340.866 294.866ZM345.409 296V289.7H348.136C348.7 289.7 349.186 289.793 349.594 289.979C350.002 290.159 350.317 290.42 350.539 290.762C350.761 291.104 350.872 291.512 350.872 291.986C350.872 292.454 350.761 292.859 350.539 293.201C350.317 293.537 350.002 293.795 349.594 293.975C349.186 294.155 348.7 294.245 348.136 294.245H346.219L346.867 293.606V296H345.409ZM349.414 296L347.839 293.714H349.396L350.989 296H349.414ZM346.867 293.768L346.219 293.084H348.055C348.505 293.084 348.841 292.988 349.063 292.796C349.285 292.598 349.396 292.328 349.396 291.986C349.396 291.638 349.285 291.368 349.063 291.176C348.841 290.984 348.505 290.888 348.055 290.888H346.219L346.867 290.195V293.768ZM353.332 294.56L353.251 292.877L356.266 289.7H357.886L355.168 292.625L354.358 293.489L353.332 294.56ZM352.027 296V289.7H353.476V296H352.027ZM356.338 296L354.097 293.255L355.051 292.22L358.039 296H356.338ZM364.037 296.108C363.143 296.108 362.444 295.859 361.94 295.361C361.436 294.863 361.184 294.152 361.184 293.228V289.7H362.642V293.174C362.642 293.774 362.765 294.206 363.011 294.47C363.257 294.734 363.602 294.866 364.046 294.866C364.49 294.866 364.835 294.734 365.081 294.47C365.327 294.206 365.45 293.774 365.45 293.174V289.7H366.89V293.228C366.89 294.152 366.638 294.863 366.134 295.361C365.63 295.859 364.931 296.108 364.037 296.108ZM370.401 296.108C369.897 296.108 369.414 296.042 368.952 295.91C368.49 295.772 368.118 295.595 367.836 295.379L368.331 294.281C368.601 294.473 368.919 294.632 369.285 294.758C369.657 294.878 370.032 294.938 370.41 294.938C370.698 294.938 370.929 294.911 371.103 294.857C371.283 294.797 371.415 294.716 371.499 294.614C371.583 294.512 371.625 294.395 371.625 294.263C371.625 294.095 371.559 293.963 371.427 293.867C371.295 293.765 371.121 293.684 370.905 293.624C370.689 293.558 370.449 293.498 370.185 293.444C369.927 293.384 369.666 293.312 369.402 293.228C369.144 293.144 368.907 293.036 368.691 292.904C368.475 292.772 368.298 292.598 368.16 292.382C368.028 292.166 367.962 291.89 367.962 291.554C367.962 291.194 368.058 290.867 368.25 290.573C368.448 290.273 368.742 290.036 369.132 289.862C369.528 289.682 370.023 289.592 370.617 289.592C371.013 289.592 371.403 289.64 371.787 289.736C372.171 289.826 372.51 289.964 372.804 290.15L372.354 291.257C372.06 291.089 371.766 290.966 371.472 290.888C371.178 290.804 370.89 290.762 370.608 290.762C370.326 290.762 370.095 290.795 369.915 290.861C369.735 290.927 369.606 291.014 369.528 291.122C369.45 291.224 369.411 291.344 369.411 291.482C369.411 291.644 369.477 291.776 369.609 291.878C369.741 291.974 369.915 292.052 370.131 292.112C370.347 292.172 370.584 292.232 370.842 292.292C371.106 292.352 371.367 292.421 371.625 292.499C371.889 292.577 372.129 292.682 372.345 292.814C372.561 292.946 372.735 293.12 372.867 293.336C373.005 293.552 373.074 293.825 373.074 294.155C373.074 294.509 372.975 294.833 372.777 295.127C372.579 295.421 372.282 295.658 371.886 295.838C371.496 296.018 371.001 296.108 370.401 296.108ZM375.411 292.238H378.444V293.372H375.411V292.238ZM375.519 294.83H378.948V296H374.07V289.7H378.831V290.87H375.519V294.83ZM380.108 296V289.7H382.97C383.654 289.7 384.257 289.832 384.779 290.096C385.301 290.354 385.709 290.717 386.003 291.185C386.297 291.653 386.444 292.208 386.444 292.85C386.444 293.486 386.297 294.041 386.003 294.515C385.709 294.983 385.301 295.349 384.779 295.613C384.257 295.871 383.654 296 382.97 296H380.108ZM381.566 294.803H382.898C383.318 294.803 383.681 294.725 383.987 294.569C384.299 294.407 384.539 294.179 384.707 293.885C384.881 293.591 384.968 293.246 384.968 292.85C384.968 292.448 384.881 292.103 384.707 291.815C384.539 291.521 384.299 291.296 383.987 291.14C383.681 290.978 383.318 290.897 382.898 290.897H381.566V294.803ZM387.976 292.841C387.736 292.841 387.529 292.76 387.355 292.598C387.187 292.43 387.103 292.217 387.103 291.959C387.103 291.701 387.187 291.494 387.355 291.338C387.529 291.176 387.736 291.095 387.976 291.095C388.222 291.095 388.429 291.176 388.597 291.338C388.765 291.494 388.849 291.701 388.849 291.959C388.849 292.217 388.765 292.43 388.597 292.598C388.429 292.76 388.222 292.841 387.976 292.841ZM387.976 296.072C387.736 296.072 387.529 295.991 387.355 295.829C387.187 295.661 387.103 295.448 387.103 295.19C387.103 294.932 387.187 294.725 387.355 294.569C387.529 294.407 387.736 294.326 387.976 294.326C388.222 294.326 388.429 294.407 388.597 294.569C388.765 294.725 388.849 294.932 388.849 295.19C388.849 295.448 388.765 295.661 388.597 295.829C388.429 295.991 388.222 296.072 387.976 296.072ZM392.448 296V289.7H395.175C395.739 289.7 396.225 289.793 396.633 289.979C397.041 290.159 397.356 290.42 397.578 290.762C397.8 291.104 397.911 291.512 397.911 291.986C397.911 292.454 397.8 292.859 397.578 293.201C397.356 293.537 397.041 293.795 396.633 293.975C396.225 294.155 395.739 294.245 395.175 294.245H393.258L393.906 293.606V296H392.448ZM396.453 296L394.878 293.714H396.435L398.028 296H396.453ZM393.906 293.768L393.258 293.084H395.094C395.544 293.084 395.88 292.988 396.102 292.796C396.324 292.598 396.435 292.328 396.435 291.986C396.435 291.638 396.324 291.368 396.102 291.176C395.88 290.984 395.544 290.888 395.094 290.888H393.258L393.906 290.195V293.768ZM400.407 292.238H403.44V293.372H400.407V292.238ZM400.515 294.83H403.944V296H399.066V289.7H403.827V290.87H400.515V294.83ZM404.276 296L407.084 289.7H408.524L411.341 296H409.811L407.507 290.438H408.083L405.77 296H404.276ZM405.68 294.65L406.067 293.543H409.307L409.703 294.65H405.68ZM414.922 296.108C414.436 296.108 413.983 296.03 413.563 295.874C413.149 295.712 412.789 295.484 412.483 295.19C412.177 294.896 411.937 294.551 411.763 294.155C411.595 293.759 411.511 293.324 411.511 292.85C411.511 292.376 411.595 291.941 411.763 291.545C411.937 291.149 412.177 290.804 412.483 290.51C412.795 290.216 413.158 289.991 413.572 289.835C413.986 289.673 414.439 289.592 414.931 289.592C415.477 289.592 415.969 289.688 416.407 289.88C416.851 290.066 417.223 290.342 417.523 290.708L416.587 291.572C416.371 291.326 416.131 291.143 415.867 291.023C415.603 290.897 415.315 290.834 415.003 290.834C414.709 290.834 414.439 290.882 414.193 290.978C413.947 291.074 413.734 291.212 413.554 291.392C413.374 291.572 413.233 291.785 413.131 292.031C413.035 292.277 412.987 292.55 412.987 292.85C412.987 293.15 413.035 293.423 413.131 293.669C413.233 293.915 413.374 294.128 413.554 294.308C413.734 294.488 413.947 294.626 414.193 294.722C414.439 294.818 414.709 294.866 415.003 294.866C415.315 294.866 415.603 294.806 415.867 294.686C416.131 294.56 416.371 294.371 416.587 294.119L417.523 294.983C417.223 295.349 416.851 295.628 416.407 295.82C415.969 296.012 415.474 296.108 414.922 296.108ZM419.751 296V290.888H417.735V289.7H423.225V290.888H421.209V296H419.751ZM427.72 296.108C427.294 296.108 426.901 296.03 426.541 295.874C426.187 295.712 425.896 295.484 425.668 295.19L426.478 294.218C426.652 294.446 426.835 294.62 427.027 294.74C427.219 294.854 427.426 294.911 427.648 294.911C428.242 294.911 428.539 294.563 428.539 293.867V290.87H426.325V289.7H429.988V293.786C429.988 294.566 429.796 295.148 429.412 295.532C429.028 295.916 428.464 296.108 427.72 296.108ZM433.498 296.108C432.994 296.108 432.511 296.042 432.049 295.91C431.587 295.772 431.215 295.595 430.933 295.379L431.428 294.281C431.698 294.473 432.016 294.632 432.382 294.758C432.754 294.878 433.129 294.938 433.507 294.938C433.795 294.938 434.026 294.911 434.2 294.857C434.38 294.797 434.512 294.716 434.596 294.614C434.68 294.512 434.722 294.395 434.722 294.263C434.722 294.095 434.656 293.963 434.524 293.867C434.392 293.765 434.218 293.684 434.002 293.624C433.786 293.558 433.546 293.498 433.282 293.444C433.024 293.384 432.763 293.312 432.499 293.228C432.241 293.144 432.004 293.036 431.788 292.904C431.572 292.772 431.395 292.598 431.257 292.382C431.125 292.166 431.059 291.89 431.059 291.554C431.059 291.194 431.155 290.867 431.347 290.573C431.545 290.273 431.839 290.036 432.229 289.862C432.625 289.682 433.12 289.592 433.714 289.592C434.11 289.592 434.5 289.64 434.884 289.736C435.268 289.826 435.607 289.964 435.901 290.15L435.451 291.257C435.157 291.089 434.863 290.966 434.569 290.888C434.275 290.804 433.987 290.762 433.705 290.762C433.423 290.762 433.192 290.795 433.012 290.861C432.832 290.927 432.703 291.014 432.625 291.122C432.547 291.224 432.508 291.344 432.508 291.482C432.508 291.644 432.574 291.776 432.706 291.878C432.838 291.974 433.012 292.052 433.228 292.112C433.444 292.172 433.681 292.232 433.939 292.292C434.203 292.352 434.464 292.421 434.722 292.499C434.986 292.577 435.226 292.682 435.442 292.814C435.658 292.946 435.832 293.12 435.964 293.336C436.102 293.552 436.171 293.825 436.171 294.155C436.171 294.509 436.072 294.833 435.874 295.127C435.676 295.421 435.379 295.658 434.983 295.838C434.593 296.018 434.098 296.108 433.498 296.108Z" fill="white"/>
<circle cx="232" cy="242" r="27.5" stroke="black" stroke-width="5"/>
<path d="M247.161 230.065H216.839V235.353H228.827V254.581H235.173V235.353H247.161V230.065Z" fill="black"/>
<path d="M240.902 249.367H247.742V254.727H240.902V249.367Z" fill="#40FF6A"/>
<path d="M303.004 230.4V234.628H293.484V250H288.444V234.628H278.924V230.4H303.004ZM319.691 250.28C311.067 250.28 307.371 246.696 307.371 240.172C307.371 233.676 311.067 230.12 319.691 230.12C328.287 230.12 332.011 233.704 332.011 240.172C332.011 246.668 328.287 250.28 319.691 250.28ZM319.691 246.052C324.927 246.052 326.971 244.176 326.971 240.172C326.971 236.196 324.955 234.348 319.691 234.348C314.427 234.348 312.411 236.168 312.411 240.172C312.411 244.204 314.455 246.052 319.691 246.052ZM342.807 245.772H357.927V250H337.767V230.4H342.807V245.772ZM387.491 240.172C387.491 246.976 383.767 250.28 375.171 250.28C366.547 250.28 362.851 247.004 362.851 240.172V230.4H367.891V240.172C367.891 242.916 368.647 246.052 375.171 246.052C381.695 246.052 382.451 242.888 382.451 240.172V230.4H387.491V240.172ZM417.313 230.4V234.628H407.793V250H402.753V234.628H393.233V230.4H417.313ZM434 250.28C425.376 250.28 421.68 246.696 421.68 240.172C421.68 233.676 425.376 230.12 434 230.12C442.596 230.12 446.32 233.704 446.32 240.172C446.32 246.668 442.596 250.28 434 250.28ZM434 246.052C439.236 246.052 441.28 244.176 441.28 240.172C441.28 236.196 439.264 234.348 434 234.348C428.736 234.348 426.72 236.168 426.72 240.172C426.72 244.204 428.764 246.052 434 246.052ZM464.116 250.28C455.492 250.28 451.796 246.696 451.796 240.172C451.796 233.676 455.492 230.12 464.116 230.12C472.712 230.12 476.436 233.704 476.436 240.172C476.436 246.668 472.712 250.28 464.116 250.28ZM464.116 246.052C469.352 246.052 471.396 244.176 471.396 240.172C471.396 236.196 469.38 234.348 464.116 234.348C458.852 234.348 456.836 236.168 456.836 240.172C456.836 244.204 458.88 246.052 464.116 246.052ZM502.407 230.4H507.447V250H500.587L487.231 235.3V250H482.191V230.4H489.023L502.407 245.128V230.4Z" fill="black"/>
<defs>
<filter id="filter0_d_5_93" x="262" y="279" width="202" height="35" filterUnits="userSpaceOnUse" color-interpolation-filters="sRGB">
<feFlood flood-opacity="0" result="BackgroundImageFix"/>
<feColorMatrix in="SourceAlpha" type="matrix" values="0 0 0 0 0 0 0 0 0 0 0 0 0 0 0 0 0 0 127 0" result="hardAlpha"/>
<feOffset dy="4"/>
<feGaussianBlur stdDeviation="2"/>
<feComposite in2="hardAlpha" operator="out"/>
<feColorMatrix type="matrix" values="0 0 0 0 0.972549 0 0 0 0 0.407843 0 0 0 0 0.454902 0 0 0 0.35 0"/>
<feBlend mode="normal" in2="BackgroundImageFix" result="effect1_dropShadow_5_93"/>
<feBlend mode="normal" in="SourceGraphic" in2="effect1_dropShadow_5_93" result="shape"/>
</filter>
</defs>
</svg>
